HIERARCHY
ROOT Hips
{
 OFFSET 0.000000 0.000000 0.000000
 CHANNELS 6 Xposition Yposition Zposition Yrotation Xrotation Zrotation
 JOINT Chest
 {
  OFFSET 0.000000 9.581000 -0.001100
  CHANNELS 3 Yrotation Xrotation Zrotation
  JOINT Chest2
  {
   OFFSET 0.000000 9.561100 0.002200
   CHANNELS 3 Yrotation Xrotation Zrotation
   JOINT Chest3
   {
    OFFSET 0.000000 9.521100 0.000000
    CHANNELS 3 Yrotation Xrotation Zrotation
    JOINT Chest4
    {
     OFFSET 0.000000 9.511400 0.000000
     CHANNELS 3 Yrotation Xrotation Zrotation
     JOINT Neck
     {
      OFFSET 0.000000 14.375100 0.000000
      CHANNELS 3 Yrotation Xrotation Zrotation
      JOINT Head
      {
       OFFSET 0.000000 8.901200 0.004600
       CHANNELS 3 Yrotation Xrotation Zrotation
       End Site
       {
        OFFSET 0.000000 16.962200 0.002400
       }
      }
     }
     JOINT RightCollar
     {
      OFFSET -2.920100 9.518800 0.000000
      CHANNELS 3 Yrotation Xrotation Zrotation
      JOINT RightShoulder
      {
       OFFSET -13.664500 0.000000 0.000000
       CHANNELS 3 Yrotation Xrotation Zrotation
       JOINT RightElbow
       {
        OFFSET 0.000000 -29.999200 0.000000
        CHANNELS 3 Yrotation Xrotation Zrotation
        JOINT RightWrist
        {
         OFFSET 0.000000 -24.253600 0.000000
         CHANNELS 3 Yrotation Xrotation Zrotation
         End Site
         {
          OFFSET 0.000000 -17.918900 0.000000
         }
        }
       }
      }
     }
     JOINT LeftCollar
     {
      OFFSET 2.920100 9.518800 0.000000
      CHANNELS 3 Yrotation Xrotation Zrotation
      JOINT LeftShoulder
      {
       OFFSET 13.664500 0.000000 0.000000
       CHANNELS 3 Yrotation Xrotation Zrotation
       JOINT LeftElbow
       {
        OFFSET 0.000000 -29.999200 0.000000
        CHANNELS 3 Yrotation Xrotation Zrotation
        JOINT LeftWrist
        {
         OFFSET 0.000000 -24.253600 0.000000
         CHANNELS 3 Yrotation Xrotation Zrotation
         End Site
         {
          OFFSET 0.000000 -17.918900 0.000000
         }
        }
       }
      }
     }
    }
   }
  }
 }
 JOINT RightHip
 {
  OFFSET -7.797300 0.005300 0.000500
  CHANNELS 3 Yrotation Xrotation Zrotation
  JOINT RightKnee
  {
   OFFSET 0.000000 -40.663400 -0.000500
   CHANNELS 3 Yrotation Xrotation Zrotation
   JOINT RightAnkle
   {
    OFFSET 0.000000 -39.523700 -0.000900
    CHANNELS 3 Yrotation Xrotation Zrotation
    JOINT RightToe
    {
     OFFSET 0.000000 -6.418000 14.485300
     CHANNELS 3 Yrotation Xrotation Zrotation
     End Site
     {
      OFFSET 0.000000 -1.465200 6.326400
     }
    }
   }
  }
 }
 JOINT LeftHip
 {
  OFFSET 7.797300 0.005300 0.000500
  CHANNELS 3 Yrotation Xrotation Zrotation
  JOINT LeftKnee
  {
   OFFSET 0.000000 -40.663400 -0.000500
   CHANNELS 3 Yrotation Xrotation Zrotation
   JOINT LeftAnkle
   {
    OFFSET 0.000000 -39.523700 -0.000900
    CHANNELS 3 Yrotation Xrotation Zrotation
    JOINT LeftToe
    {
     OFFSET 0.000000 -6.418000 14.485300
     CHANNELS 3 Yrotation Xrotation Zrotation
     End Site
     {
      OFFSET 0.000000 -1.465200 6.326400
     }
    }
   }
  }
 }
}
MOTION
Frames: 12
Frame Time: 0.008333
-22.071373 126.296150 71.875649 -172.346421 -25.567837 -1.233507 -1.433197 21.717578 0.993670 -0.213770 2.950137 0.165830 -0.343897 4.812504 0.265836 -1.228232 18.466629 0.882593 -0.170708 13.822573 -0.721980 -0.014010 -11.225770 -0.712020 -6.993324 -6.432339 -1.525104 3.499190 0.140585 -6.571514 109.390712 -61.814800 -82.417266 -2.921961 -8.043537 -52.760529 -5.121638 -6.648175 1.186979 -1.002680 -12.422633 6.742335 -60.672634 -69.499823 45.764186 -19.509961 4.355206 34.876084 -10.456100 -62.812030 7.172891 -43.177223 72.612080 -43.798805 22.023806 37.698373 9.822459 0.004145 0.001099 0.001836 -7.999459 -50.632436 -10.990430 32.635275 76.024593 22.388825 1.724335 -1.655767 9.116134 -0.006955 -0.000811 -0.003082
-22.072094 126.297018 71.878551 -172.339262 -25.583474 -1.235204 -1.438316 21.710858 0.989860 -0.214166 2.949356 0.165628 -0.345113 4.823807 0.266834 -1.232405 18.454747 0.880280 -0.169221 13.828985 -0.723781 -0.010123 -11.220135 -0.715172 -6.967287 -6.469780 -1.535609 3.522015 0.159592 -6.578183 109.302967 -61.812585 -82.301748 -2.907017 -8.026224 -52.800406 -5.146569 -6.712859 1.196732 -1.015547 -12.390458 6.744973 -60.422748 -69.385126 45.526132 -19.473549 4.283015 34.941370 -10.449761 -62.798212 7.163772 -43.198302 72.597332 -43.843061 22.086657 37.691144 9.882090 0.000379 0.006634 0.000168 -7.996700 -50.613930 -10.996608 32.610004 76.009977 22.359075 1.729321 -1.636167 9.122427 -0.006374 0.000523 -0.002824
-22.073036 126.298885 71.879344 -172.330034 -25.613706 -1.237310 -1.445988 21.730356 0.986136 -0.214362 2.948822 0.165510 -0.342253 4.786546 0.263077 -1.236717 18.476090 0.881688 -0.167185 13.836174 -0.725999 0.000361 -11.210352 -0.720212 -6.945363 -6.500821 -1.547504 3.540636 0.176109 -6.579294 109.227885 -61.802689 -82.196797 -2.921385 -8.015410 -52.843628 -5.161206 -6.725755 1.200024 -1.018776 -12.381660 6.747382 -60.318016 -69.323635 45.425613 -19.481215 4.267361 34.988231 -10.424707 -62.772114 7.149462 -43.169189 72.578853 -43.845350 22.103967 37.706335 9.956325 -0.007305 -0.000920 -0.003236 -7.996840 -50.582496 -11.001309 32.588436 75.999732 22.331395 1.728064 -1.620840 9.125611 -0.004053 -0.000822 -0.001796
-22.072232 126.299369 71.882760 -172.327033 -25.625206 -1.244302 -1.444507 21.731570 0.990986 -0.214633 2.948260 0.165433 -0.336220 4.775014 0.262517 -1.239444 18.447243 0.875462 -0.166570 13.868785 -0.721673 0.018447 -11.200451 -0.726917 -6.929742 -6.502882 -1.554449 3.548935 0.188950 -6.579985 109.173287 -61.788232 -82.108634 -2.939680 -8.000441 -52.879904 -5.185060 -6.712504 1.207692 -1.004500 -12.350465 6.747511 -60.286013 -69.277999 45.391217 -19.481289 4.249413 35.013011 -10.381571 -62.765593 7.133546 -43.227062 72.562463 -43.892547 22.050212 37.707931 9.962446 -0.000483 -0.000108 -0.000214 -8.004706 -50.571129 -10.990801 32.573403 75.995459 22.313147 1.729454 -1.613011 9.125223 -0.002087 0.000582 -0.000925
-22.072440 126.299815 71.886245 -172.322186 -25.636348 -1.245651 -1.440313 21.721855 0.994166 -0.214935 2.947251 0.165084 -0.336553 4.780935 0.259468 -1.234407 18.441131 0.873078 -0.146691 13.864962 -0.725206 -0.002370 -11.176118 -0.711694 -6.932018 -6.506067 -1.552569 3.555316 0.172974 -6.587490 109.151435 -61.751817 -82.004343 -2.963290 -7.981288 -52.953724 -5.218960 -6.726897 1.216282 -0.996812 -12.342579 6.753640 -60.192458 -69.228338 45.297660 -19.489223 4.236659 35.039424 -10.342434 -62.757740 7.101259 -43.236950 72.554876 -43.896952 22.040192 37.703035 9.974612 0.001068 0.001703 0.000473 -8.005661 -50.560278 -10.991839 32.573083 75.984333 22.307385 1.725180 -1.601149 9.129568 -0.002392 0.000710 -0.001060
-22.072995 126.300727 71.888732 -172.312496 -25.653193 -1.247802 -1.437017 21.719055 0.991921 -0.202232 2.928881 0.160177 -0.357344 4.813842 0.268382 -1.229023 18.435761 0.871503 -0.143458 13.871300 -0.723091 -0.000511 -11.171237 -0.710001 -6.930219 -6.519523 -1.551571 3.554546 0.156231 -6.595113 109.100475 -61.754770 -81.912141 -2.946351 -7.974484 -52.978412 -5.238199 -6.734100 1.221077 -0.994795 -12.352700 6.762801 -60.093756 -69.185943 45.197626 -19.480630 4.215414 35.055901 -10.301317 -62.742471 7.062960 -43.184906 72.549437 -43.854099 22.053293 37.701645 10.011228 -0.005317 -0.002449 -0.002356 -8.006587 -50.543901 -10.996615 32.600236 75.969517 22.328319 1.712682 -1.587434 9.134968 -0.002739 0.000028 -0.001213
-22.073468 126.302316 71.889790 -172.301745 -25.678118 -1.252262 -1.433833 21.724858 0.991357 -0.208191 2.939557 0.161968 -0.348359 4.802074 0.266001 -1.216157 18.435523 0.869040 -0.152842 13.888377 -0.709674 0.016000 -11.159748 -0.712785 -6.940728 -6.547366 -1.546119 3.544537 0.168304 -6.593301 109.049185 -61.759980 -81.824745 -2.933028 -7.973198 -52.998985 -5.275538 -6.730818 1.234561 -0.983488 -12.393745 6.766448 -59.943690 -69.134751 45.031528 -19.480765 4.200052 35.066611 -10.272375 -62.717152 7.031538 -43.192782 72.545565 -43.852859 22.023851 37.687857 9.997065 -0.005454 -0.003447 -0.002416 -7.991342 -50.513901 -11.003194 32.617194 75.939454 22.336820 1.690404 -1.556460 9.149808 -0.002482 -0.003847 -0.001099
-22.073778 126.302905 71.892930 -172.301247 -25.688165 -1.251876 -1.424850 21.720731 0.988399 -0.211804 2.946529 0.164708 -0.325221 4.783468 0.254578 -1.213174 18.446698 0.876526 -0.152690 13.902109 -0.699502 0.046954 -11.132644 -0.716013 -6.938656 -6.603617 -1.546104 3.516953 0.208587 -6.581354 109.010222 -61.763936 -81.750597 -2.920879 -7.971119 -53.021075 -5.347756 -6.797780 1.238363 -0.938481 -12.345263 6.777740 -59.871117 -69.106148 44.945687 -19.490390 4.193468 35.084685 -10.258526 -62.706734 7.020784 -43.146911 72.548525 -43.814954 22.005284 37.681078 10.006771 -0.010985 -0.002646 -0.004867 -7.984724 -50.502949 -11.006748 32.616075 75.929511 22.334337 1.686117 -1.547677 9.153015 -0.002222 -0.003070 -0.000985
-22.073242 126.303581 71.895830 -172.299481 -25.698013 -1.257419 -1.396927 21.707219 0.990240 -0.209324 2.947521 0.164710 -0.336610 4.796228 0.262824 -1.204991 18.448599 0.877752 -0.148083 13.910253 -0.695474 0.051304 -11.119978 -0.707737 -6.934621 -6.639804 -1.548480 3.487824 0.224505 -6.570240 108.978910 -61.763975 -81.683030 -2.915103 -7.968274 -53.041828 -5.390141 -6.832501 1.245086 -0.918440 -12.339361 6.781392 -59.734120 -69.066500 44.806171 -19.486070 4.159240 35.105819 -10.234786 -62.689322 7.005617 -43.103101 72.545991 -43.769277 22.028251 37.656205 10.002643 -0.009975 -0.001492 -0.004419 -7.969318 -50.487079 -11.011851 32.582696 75.920697 22.312186 1.681847 -1.540675 9.154077 0.000027 -0.000083 0.000012
-22.073019 126.304438 71.898359 -172.293256 -25.709756 -1.263285 -1.386448 21.708963 0.994628 -0.208171 2.948456 0.164728 -0.339123 4.798996 0.264129 -1.193324 18.450008 0.876975 -0.143245 13.918745 -0.688585 0.052634 -11.112096 -0.701968 -6.931240 -6.664986 -1.552759 3.460367 0.227166 -6.555593 108.939930 -61.755052 -81.612860 -2.887382 -7.947563 -53.076972 -5.433206 -6.868177 1.253575 -0.902522 -12.335735 6.786893 -59.500960 -69.025449 44.562249 -19.502879 4.111619 35.141412 -10.212392 -62.667573 6.989902 -43.040159 72.549966 -43.706931 22.038842 37.623728 9.995700 -0.007870 0.000357 -0.003487 -7.945677 -50.464406 -11.020580 32.515210 75.901646 22.248856 1.679356 -1.521152 9.166865 -0.001049 0.002174 -0.000465
-22.072767 126.305950 71.899485 -172.287999 -25.730385 -1.269734 -1.374646 21.719847 0.999509 -0.207008 2.949538 0.164666 -0.349196 4.805541 0.268353 -1.175711 18.448216 0.871845 -0.138717 13.925867 -0.680910 0.052354 -11.106816 -0.697280 -6.934418 -6.680363 -1.553624 3.447047 0.221447 -6.537637 108.884349 -61.732243 -81.537737 -2.875627 -7.930342 -53.117665 -5.465655 -6.883522 1.265708 -0.895108 -12.334557 6.789841 -59.377746 -69.003932 44.431406 -19.509459 4.085637 35.166324 -10.194661 -62.637346 6.978465 -43.018020 72.544895 -43.683711 22.072065 37.599550 9.992582 -0.002357 0.003534 -0.001044 -7.948031 -50.441656 -11.018736 32.496586 75.897301 22.230018 1.682688 -1.515522 9.165434 -0.001603 0.003289 -0.000710
-22.072574 126.306901 71.901611 -172.277161 -25.744299 -1.276990 -1.371129 21.722154 1.001502 -0.205930 2.950734 0.164657 -0.343255 4.810869 0.268811 -1.177266 18.450243 0.872435 -0.113177 13.931504 -0.686070 0.032375 -11.103578 -0.680655 -6.943559 -6.682293 -1.547992 3.449480 0.210268 -6.526644 108.828171 -61.696156 -81.472095 -2.887002 -7.927989 -53.145077 -5.490269 -6.899178 1.275817 -0.889428 -12.334006 6.793971 -59.263474 -68.982969 44.308158 -19.504804 4.069681 35.205974 -10.177620 -62.616454 6.965493 -43.014333 72.537935 -43.675694 22.086646 37.587102 9.992264 0.003695 0.008529 0.001638 -7.956507 -50.423387 -11.010666 32.445733 75.887544 22.171105 1.684592 -1.504300 9.169346 -0.003443 0.004073 -0.001526
